<?xml version="1.0" standalone="no"?>
<!DOCTYPE svg PUBLIC "-//W3C//DTD SVG 20010904//EN"
 "http://www.w3.org/TR/2001/REC-SVG-20010904/DTD/svg10.dtd">
<svg version="1.0" xmlns="http://www.w3.org/2000/svg"
 width="1280.000000pt" height="926.000000pt" viewBox="0 0 1280.000000 926.000000"
 preserveAspectRatio="xMidYMid meet">
<metadata>
Created by potrace 1.15, written by Peter Selinger 2001-2017
</metadata>
<g transform="translate(0.000000,926.000000) scale(0.100000,-0.100000)"
fill="#000000" stroke="none">
<path d="M5447 9250 c-95 -11 -184 -33 -234 -58 -45 -22 -71 -29 -178 -47 -83
-13 -188 -51 -430 -153 -211 -89 -462 -175 -1022 -352 -585 -185 -656 -209
-853 -297 -263 -117 -487 -243 -644 -362 -154 -117 -237 -171 -453 -292 -499
-282 -679 -427 -827 -666 -44 -70 -127 -202 -185 -293 -321 -507 -372 -593
-452 -772 -93 -207 -139 -375 -160 -583 -43 -425 78 -804 323 -1017 88 -77
144 -113 261 -168 184 -88 363 -127 712 -155 202 -17 315 -32 315 -44 0 -15
-115 -34 -330 -56 -182 -19 -299 -41 -319 -61 -13 -12 -9 -19 31 -58 49 -47
153 -112 243 -151 220 -98 355 -103 1100 -46 215 17 410 31 434 33 l44 2 27
-114 c32 -140 56 -187 129 -260 97 -97 355 -282 476 -342 71 -36 160 -63 319
-98 173 -38 270 -76 357 -140 78 -58 126 -81 229 -109 236 -64 580 -52 831 30
35 11 145 58 244 104 198 91 395 171 442 181 30 6 34 2 89 -77 166 -238 541
-541 785 -634 92 -35 142 -82 188 -174 99 -194 457 -603 943 -1075 270 -261
433 -436 576 -617 109 -136 224 -248 287 -279 22 -11 69 -27 105 -36 56 -14
78 -15 165 -5 55 7 122 16 148 21 55 11 169 66 234 112 64 47 77 71 75 150 -2
113 -70 285 -200 506 -97 163 -124 220 -120 250 3 24 23 37 183 117 261 130
361 194 481 305 81 76 210 146 419 228 423 165 500 198 577 242 114 67 167
115 238 219 33 48 117 159 187 245 299 370 327 412 372 551 82 254 127 664 92
834 -16 77 -14 215 4 256 21 51 48 58 179 45 131 -13 226 -2 333 40 132 51
263 163 337 290 119 202 246 631 246 829 0 31 -9 88 -21 126 -17 57 -21 95
-20 205 0 94 -4 151 -15 189 -41 143 -333 643 -499 856 -80 102 -188 206 -243
234 -24 12 -69 26 -100 31 -68 12 -78 21 -95 87 -8 28 -29 78 -48 110 -50 86
-236 268 -349 343 -128 85 -233 174 -333 281 -103 110 -193 182 -296 237 -94
50 -168 77 -239 87 -60 8 -78 26 -130 131 -77 154 -294 271 -543 293 -227 20
-428 97 -726 278 -143 86 -265 145 -343 164 -88 22 -249 17 -365 -10 -126 -30
-235 -25 -420 18 -260 62 -344 72 -705 81 -583 16 -913 40 -994 74 -18 7 -46
31 -64 53 -42 53 -135 102 -230 119 -94 17 -467 26 -575 14z m554 -53 c152
-35 229 -92 229 -169 0 -58 -63 -196 -194 -422 -204 -356 -293 -557 -331 -752
-10 -47 -20 -182 -25 -336 -15 -402 -18 -418 -214 -896 -105 -256 -135 -372
-150 -587 -18 -241 -30 -265 -138 -265 -63 0 -116 25 -140 66 -9 16 -28 72
-42 125 -14 52 -38 129 -55 170 -16 40 -43 108 -60 149 -80 200 -34 333 143
410 103 45 88 67 -22 35 -107 -32 -236 -192 -249 -309 -7 -60 13 -115 90 -244
106 -177 121 -215 118 -296 -3 -107 -134 -241 -507 -522 -140 -105 -242 -169
-312 -197 -79 -31 -214 -16 -265 31 -60 54 -143 317 -186 592 -29 186 -34 266
-21 378 13 117 5 151 -32 131 -39 -21 -79 -28 -104 -19 -30 12 -31 -1 -4 -70
11 -28 29 -103 40 -168 27 -154 53 -270 106 -480 24 -94 44 -187 44 -205 0
-41 -18 -67 -82 -117 -63 -50 -90 -51 -194 -6 -82 36 -229 68 -389 86 -185 20
-455 8 -455 -21 0 -12 65 -18 280 -24 307 -10 476 -41 599 -112 100 -58 212
-203 196 -253 -9 -28 -56 -70 -217 -193 l-137 -104 -878 -7 c-483 -3 -977 -9
-1098 -12 l-220 -6 -86 65 c-125 95 -179 172 -214 308 -28 106 -3 249 43 249
8 0 37 -20 65 -45 46 -40 77 -56 77 -40 0 16 -33 79 -68 131 -62 91 -77 148
-77 289 1 144 17 213 79 340 52 105 119 181 194 219 76 38 196 68 281 70 92 1
139 -15 147 -53 26 -107 422 -716 449 -689 10 9 -36 93 -158 292 -130 213
-188 330 -218 445 -31 123 -24 203 26 299 29 56 35 76 26 85 -19 19 -63 -12
-89 -64 -16 -33 -25 -72 -29 -135 -9 -123 -16 -129 -159 -138 -147 -10 -195
-21 -289 -66 -174 -84 -268 -221 -340 -495 -15 -55 -31 -108 -36 -117 -15 -27
-63 -48 -112 -48 -64 0 -142 -27 -182 -61 -43 -38 -44 -49 -6 -49 28 0 61 22
61 40 0 34 205 39 255 6 l28 -18 -6 -127 c-7 -145 -31 -300 -52 -342 -30 -58
-77 -88 -217 -140 l-81 -30 -25 23 c-50 47 -122 147 -172 238 -60 112 -76 132
-86 107 -10 -28 48 -136 136 -252 110 -145 158 -225 166 -277 23 -153 118
-195 574 -253 107 -13 212 -30 234 -36 54 -15 107 -70 157 -163 l43 -79 -185
6 c-337 12 -557 64 -745 179 -229 138 -390 387 -450 693 -13 65 -18 142 -18
280 -1 214 22 375 74 535 71 217 354 711 550 960 85 109 107 145 159 270 80
192 242 329 696 590 305 176 380 225 608 404 97 76 212 136 532 279 346 154
493 208 1085 392 358 112 632 207 825 287 247 101 288 111 475 112 139 1 161
-2 213 -22 115 -47 159 -119 130 -214 -12 -41 -30 -67 -81 -118 -151 -151
-173 -156 -843 -195 -620 -36 -779 -52 -956 -100 -162 -43 -268 -106 -432
-254 -208 -189 -352 -303 -501 -398 -36 -22 -261 -154 -500 -293 -239 -139
-482 -285 -540 -324 -260 -177 -353 -283 -411 -467 -52 -167 -79 -196 -410
-427 -190 -132 -279 -214 -279 -256 0 -14 2 -26 5 -26 3 0 53 45 110 99 94 89
118 106 237 166 244 123 327 214 391 425 36 116 87 198 182 289 105 101 234
185 680 444 775 449 880 520 1060 719 230 254 332 281 1320 359 450 35 578 35
622 3 24 -18 28 -29 31 -79 4 -84 -25 -314 -54 -414 -49 -173 -156 -353 -316
-531 -71 -80 -257 -252 -488 -451 -85 -73 -219 -191 -298 -261 -153 -136 -187
-154 -224 -121 -50 44 -85 165 -147 508 -55 307 -65 391 -65 540 0 125 2 134
38 235 102 285 98 269 61 305 -28 29 -76 33 -96 9 -11 -14 -10 -18 6 -30 10
-8 22 -14 27 -14 18 0 6 -77 -27 -161 -75 -193 -75 -305 0 -984 20 -176 38
-334 41 -351 l6 -31 -113 -11 c-127 -13 -161 -28 -200 -88 -35 -53 -81 -175
-119 -319 -18 -66 -41 -138 -52 -160 -36 -71 -104 -159 -175 -225 -120 -113
-200 -136 -285 -80 -61 41 -201 162 -221 193 -15 23 -15 26 2 41 10 9 58 32
106 52 148 59 190 93 360 283 70 78 173 189 230 246 57 58 101 105 99 105 -2
0 -49 -32 -103 -71 -90 -64 -149 -120 -346 -330 -109 -116 -227 -189 -342
-210 -96 -18 -147 24 -222 186 -43 93 -63 114 -86 95 -20 -16 -12 -55 23 -125
60 -120 204 -276 420 -455 l102 -84 -133 -46 c-212 -72 -317 -156 -391 -310
-27 -58 -31 -77 -34 -177 -3 -66 -8 -113 -14 -113 -6 0 -69 16 -141 35 -164
45 -297 100 -407 169 -102 64 -144 86 -165 86 -27 0 -1 -34 67 -89 209 -169
678 -289 1196 -306 97 -3 191 -8 207 -10 19 -3 25 -2 15 4 -8 4 -83 13 -166
20 -262 20 -460 56 -498 89 -55 49 -62 166 -16 259 58 116 217 241 379 299
279 100 383 155 476 256 74 80 133 202 180 373 68 244 101 312 171 345 69 34
200 21 377 -37 97 -32 153 -79 208 -176 125 -217 210 -333 300 -407 l54 -45
-28 38 c-79 105 -142 206 -199 316 -72 138 -109 188 -185 249 -29 24 -53 50
-53 60 0 26 134 151 430 397 477 398 654 585 770 810 58 114 88 217 115 400
40 260 54 304 128 383 113 122 237 296 237 334 0 12 -45 66 -110 133 -60 62
-110 120 -110 128 0 19 23 44 50 52 87 28 531 29 651 2z m664 -218 c213 -20
405 -63 685 -154 307 -100 343 -108 354 -79 8 21 -54 47 -189 79 -109 26 -171
51 -195 80 -23 28 4 40 103 43 101 4 298 -24 537 -77 149 -32 190 -46 190 -60
0 -17 -122 -152 -216 -240 -62 -57 -99 -84 -128 -92 -28 -8 -119 -10 -278 -6
-131 2 -238 2 -238 -2 0 -12 133 -59 200 -71 35 -6 107 -10 159 -8 116 4 124
-6 56 -74 -57 -56 -172 -125 -290 -173 -189 -78 -287 -140 -388 -243 l-49 -50
-110 69 c-111 68 -183 102 -250 114 -41 8 -58 -7 -25 -23 12 -6 74 -35 138
-66 134 -63 159 -87 159 -154 0 -103 -189 -362 -263 -362 -9 0 -37 14 -61 32
-43 30 -47 31 -87 19 -54 -16 -89 -52 -89 -91 0 -38 9 -38 45 0 35 37 73 39
111 7 37 -32 28 -60 -46 -147 -136 -157 -230 -310 -230 -374 0 -26 11 -48 44
-89 62 -75 105 -164 137 -282 31 -112 34 -112 18 2 -15 113 -35 184 -80 283
-21 48 -39 100 -39 114 0 45 32 93 182 276 79 96 200 247 268 335 227 291 388
462 483 512 49 26 217 30 309 7 138 -33 289 -105 397 -188 67 -52 107 -96 154
-168 19 -29 42 -60 52 -68 17 -14 18 -13 11 20 -3 19 -18 56 -31 82 l-25 47
22 12 c17 9 100 10 323 6 522 -11 816 -58 1035 -164 115 -56 206 -141 264
-248 41 -75 82 -125 103 -125 19 0 16 22 -13 96 -21 50 -24 68 -15 77 49 48
429 -58 528 -148 37 -33 45 -48 50 -85 8 -74 13 -79 34 -38 38 74 102 62 348
-64 285 -146 422 -229 552 -336 118 -96 169 -180 169 -280 0 -49 -5 -66 -31
-105 -38 -58 -179 -193 -414 -396 -210 -181 -383 -347 -373 -356 12 -12 46 5
85 44 88 86 201 186 369 326 281 233 424 379 424 431 0 13 12 32 28 44 68 54
258 -15 370 -135 l61 -65 63 -192 c70 -216 76 -215 55 2 -13 137 -12 170 5
170 5 0 33 -23 62 -50 59 -56 105 -134 142 -242 32 -95 95 -209 200 -364 166
-245 182 -329 113 -592 -16 -63 -49 -173 -74 -245 -111 -335 -196 -466 -351
-539 -126 -59 -166 -63 -624 -60 -447 3 -696 -7 -995 -40 -273 -29 -411 -28
-555 6 -244 57 -299 67 -420 73 -279 13 -551 -47 -1155 -256 -159 -56 -346
-116 -415 -134 l-125 -32 -390 0 c-375 0 -393 1 -467 22 -190 55 -511 246
-567 337 -43 68 -29 91 104 171 104 62 164 75 405 86 240 11 253 13 224 33
-38 26 -124 39 -228 33 -266 -14 -574 -135 -588 -230 -5 -35 -62 -33 -216 7
-241 61 -292 68 -597 72 -154 2 -275 2 -270 -1 6 -2 99 -11 208 -20 306 -24
519 -61 727 -127 96 -31 203 -79 214 -97 26 -41 -460 -301 -859 -461 -211 -84
-320 -139 -363 -181 -39 -38 -40 -61 -5 -93 51 -48 280 -115 297 -87 10 16
-32 38 -119 61 -82 22 -125 43 -125 61 0 44 67 85 265 162 204 80 384 161 706
319 l286 140 197 -108 c107 -60 196 -111 196 -114 0 -3 -57 -27 -126 -55 -196
-77 -355 -179 -633 -409 -218 -180 -323 -254 -456 -321 -150 -75 -235 -96
-416 -102 -225 -8 -400 24 -568 103 -179 84 -283 193 -331 349 -20 63 -30 65
-30 4 0 -165 -36 -289 -100 -342 -58 -50 -207 -98 -345 -113 -123 -13 -392 51
-571 136 -200 94 -427 268 -489 375 -70 119 -99 471 -43 506 17 11 57 -8 129
-61 82 -59 107 -73 122 -67 7 3 -14 28 -47 58 -141 128 -156 145 -156 178 0
63 87 250 189 406 66 102 140 171 286 266 323 212 873 524 891 506 2 -2 -10
-34 -27 -72 -38 -84 -50 -165 -25 -165 9 0 28 12 41 26 23 25 28 38 40 122 10
66 75 151 218 286 168 158 259 232 364 295 177 105 260 88 276 -56 7 -61 55
-157 117 -233 54 -68 90 -129 90 -154 0 -9 -9 -33 -20 -54 -21 -41 -40 -131
-40 -193 0 -21 -10 -51 -23 -70 -45 -68 -141 -94 -456 -125 -227 -22 -262 -30
-272 -67 -12 -44 -84 -131 -157 -190 -94 -75 -115 -86 -180 -98 -179 -33 -558
-282 -621 -409 -61 -122 -75 -444 -25 -569 31 -78 36 -49 29 167 -6 176 -5
217 9 271 42 165 159 279 426 415 292 150 394 119 578 -176 80 -129 147 -218
185 -248 34 -27 42 -74 27 -156 -7 -35 -10 -68 -6 -71 17 -17 62 53 81 127 13
53 53 79 125 81 99 2 94 14 -13 31 -169 27 -193 45 -338 259 -46 68 -114 156
-151 195 -96 101 -93 128 29 245 109 105 164 128 393 159 275 38 371 76 418
165 8 17 18 66 22 109 10 110 10 110 185 102 77 -3 201 -13 276 -21 167 -20
262 -17 267 7 5 24 -44 36 -193 47 -71 6 -157 17 -190 26 -272 71 -499 259
-522 433 -14 104 117 287 276 387 55 34 171 74 316 108 421 100 1221 211 1705
236 210 11 355 1 383 -27 19 -20 20 -24 6 -48 -8 -15 -69 -76 -136 -136 -66
-60 -128 -124 -137 -143 -45 -94 3 -236 136 -403 58 -73 73 -104 66 -138 -11
-57 -462 -245 -676 -281 -79 -13 -111 -14 -185 -5 -120 15 -149 35 -207 142
-131 241 -257 380 -345 380 -27 0 -16 -18 51 -82 91 -86 157 -176 212 -287 43
-85 47 -101 47 -165 0 -62 -5 -80 -38 -146 -77 -155 -212 -306 -423 -476 -79
-64 -147 -120 -150 -126 -17 -27 68 7 141 57 209 142 443 392 501 536 29 71
58 109 85 109 20 0 39 -28 39 -59 0 -36 32 -115 61 -152 16 -21 52 -51 79 -69
103 -66 474 -211 615 -240 88 -18 231 -96 343 -187 64 -52 57 -68 -58 -125
-136 -68 -321 -105 -615 -124 -183 -12 -146 -24 60 -20 210 5 311 18 459 61
108 31 181 64 230 104 45 36 88 40 176 16 223 -61 667 10 949 150 97 49 159
102 191 164 50 99 3 93 -76 -10 -70 -91 -177 -150 -349 -193 -159 -40 -407
-57 -650 -46 -196 9 -220 17 -390 144 -66 49 -121 89 -122 90 -1 1 13 58 32
126 29 109 51 211 69 315 2 17 1 37 -3 43 -10 17 -52 -78 -81 -183 -57 -205
-88 -275 -123 -275 -101 0 -576 189 -666 265 -45 38 -78 110 -60 131 21 26 60
41 164 64 185 42 342 102 661 253 221 105 313 137 391 137 66 0 108 -20 144
-69 29 -40 39 -39 39 3 0 71 46 109 297 244 147 78 300 198 469 367 175 174
271 300 369 481 94 174 138 218 268 268 53 21 97 40 97 43 0 3 -37 4 -83 1
-159 -8 -247 -85 -357 -312 -77 -159 -155 -268 -294 -414 -168 -175 -412 -360
-577 -436 -159 -74 -418 -136 -565 -136 -66 0 -76 3 -115 33 -91 69 -149 191
-157 327 -6 115 7 159 62 207 61 53 236 142 381 193 123 43 149 56 140 70 -6
10 -50 4 -163 -21 -115 -26 -134 -25 -228 22 -58 29 -105 44 -159 52 -64 9
-80 16 -93 35 -18 28 -19 84 -12 497 5 321 1 341 -82 421 -29 28 -48 40 -43
29 59 -150 85 -275 85 -405 0 -142 -30 -148 -242 -52 -142 65 -227 97 -236 88
-7 -7 54 -44 131 -79 127 -59 214 -122 255 -186 46 -73 72 -141 72 -192 0 -34
-6 -48 -38 -79 -57 -57 -132 -76 -487 -121 -170 -22 -400 -55 -510 -74 -110
-19 -308 -52 -440 -75 -419 -71 -529 -105 -706 -220 -34 -22 -67 -40 -72 -40
-6 0 -8 42 -4 113 7 149 46 282 187 637 156 394 164 431 185 858 8 158 21 322
29 364 22 116 64 208 223 497 80 146 183 338 230 428 l85 164 122 -6 c66 -3
171 -11 231 -16z m2140 -114 c88 -23 162 -60 335 -169 279 -175 427 -234 695
-276 170 -27 222 -42 329 -98 100 -51 226 -162 226 -198 0 -30 -18 -33 -215
-44 -189 -11 -235 -17 -235 -30 0 -22 126 -43 325 -55 342 -20 552 -85 683
-213 44 -43 152 -186 152 -202 0 -3 -69 4 -152 17 -84 12 -211 29 -283 37
-267 32 -121 -30 166 -69 326 -45 543 -133 705 -288 95 -90 163 -193 215 -327
65 -166 108 -240 139 -240 15 0 12 35 -5 77 -22 52 -8 59 67 34 79 -26 155
-77 201 -133 81 -99 465 -750 518 -877 49 -118 50 -231 2 -231 -45 0 -138 150
-227 365 -52 124 -100 190 -210 287 -170 149 -369 260 -498 278 -87 12 -112
29 -156 103 -136 233 -1122 764 -1552 837 -156 27 -254 65 -328 130 -52 46
-156 102 -242 129 -169 54 -342 76 -785 101 -192 11 -388 27 -435 36 -108 20
-235 68 -482 184 l-197 92 182 176 c455 442 450 437 571 492 169 75 370 106
491 75z m-4957 -3704 c37 -21 90 -46 117 -56 28 -10 54 -21 58 -25 5 -4 -8
-21 -28 -38 -41 -33 -221 -130 -228 -122 -33 39 -118 161 -125 180 -12 34 -6
46 36 75 52 35 91 32 170 -14z m-3068 -346 c16 -8 47 -42 69 -74 67 -99 146
-143 321 -181 154 -34 311 -44 675 -43 240 0 476 8 748 24 515 30 601 21 567
-61 -17 -40 -51 -57 -147 -72 -115 -19 -2017 -18 -2161 0 -184 24 -248 53
-294 137 -32 57 -36 114 -11 151 9 14 45 46 80 70 52 38 75 50 121 63 2 1 16
-6 32 -14z m1089 -508 c24 -9 82 -42 130 -72 47 -30 114 -66 148 -80 156 -63
375 -109 582 -123 112 -8 126 -11 143 -32 21 -26 17 -53 -16 -89 -76 -86 -237
-83 -701 13 -464 96 -578 129 -634 185 -42 43 -91 135 -91 173 0 41 33 48 225
44 129 -2 181 -7 214 -19z m1124 9 c23 -11 21 -38 -7 -95 -34 -66 -74 -111
-113 -127 -42 -18 -137 -18 -297 1 -245 29 -415 80 -511 153 -56 42 -62 62
-25 74 33 9 930 4 953 -6z m6638 -196 c-13 -11 -98 -59 -190 -107 -523 -272
-774 -431 -956 -605 -167 -160 -273 -368 -344 -678 l-19 -85 -1 123 c-1 144
18 216 95 362 79 148 151 237 360 445 110 110 218 222 240 249 52 65 150 139
249 186 135 65 213 74 109 12 -70 -41 -107 -74 -94 -82 25 -15 126 18 345 113
211 91 251 104 206 67z m229 -28 c0 -15 -64 -74 -120 -112 -91 -61 -177 -105
-333 -169 -475 -197 -770 -419 -884 -667 -14 -31 -22 -58 -19 -61 14 -15 61
26 104 91 136 207 371 374 767 545 137 60 299 148 430 234 102 67 177 107 200
107 27 0 28 -29 4 -66 -54 -80 -214 -176 -505 -302 -88 -38 -198 -91 -245
-117 -364 -207 -688 -505 -798 -735 -32 -67 -35 -81 -34 -154 2 -89 -6 -106
-49 -106 -43 0 -83 25 -99 62 -17 42 -17 188 0 258 49 196 201 428 358 547
183 138 788 485 1063 609 87 39 160 56 160 36z m1400 -6 c0 -23 -130 -165
-236 -259 -177 -156 -298 -226 -679 -392 -244 -106 -526 -244 -660 -324 -55
-32 -171 -109 -257 -169 -87 -61 -158 -109 -158 -107 0 2 28 52 61 112 177
311 301 425 623 568 296 132 405 192 670 368 204 135 308 191 337 182 28 -9
24 -21 -24 -68 -59 -59 -161 -127 -387 -257 -224 -129 -316 -189 -365 -235
-36 -33 -47 -75 -20 -75 46 0 347 180 608 364 305 215 352 246 411 276 67 34
76 36 76 16z m194 -11 c4 -16 0 -40 -11 -63 -18 -39 -163 -188 -348 -358 -172
-159 -122 -149 122 25 234 166 337 212 260 115 -120 -150 -440 -361 -842 -554
-207 -100 -327 -148 -560 -227 -397 -133 -653 -296 -793 -504 -73 -110 -119
-142 -142 -100 -38 72 12 162 183 328 276 267 492 400 997 612 462 194 551
251 945 600 94 83 173 151 176 151 4 0 10 -11 13 -25z m146 -71 c-10 -45 -37
-74 -67 -74 -21 0 -23 3 -17 23 9 29 53 118 68 136 15 19 26 -39 16 -85z
m-1362 4 c4 -19 -24 -47 -98 -97 -60 -41 -248 -151 -258 -151 -21 0 226 223
277 250 42 23 74 22 79 -2z m381 -45 c-226 -160 -375 -244 -614 -346 -347
-149 -435 -205 -565 -362 -134 -164 -241 -359 -239 -435 2 -55 -8 -75 -77
-157 -63 -74 -91 -126 -100 -185 -13 -87 -53 -112 -99 -62 -19 20 -25 38 -25
71 0 102 118 375 251 578 82 127 239 290 381 396 105 78 550 350 705 431 133
70 258 115 351 127 136 17 135 18 31 -56z m-8474 -86 c275 -52 352 -64 523
-77 119 -8 172 -24 172 -50 0 -35 -122 -62 -360 -80 -80 -6 -201 -15 -270 -21
-69 -5 -255 -12 -415 -16 -340 -6 -431 4 -550 62 -70 35 -195 127 -195 145 0
21 51 33 229 55 258 33 255 33 451 30 161 -2 194 -6 415 -48z m6605 20 c0 -24
-60 -98 -175 -217 -372 -386 -409 -432 -525 -657 -29 -57 -57 -103 -62 -103
-22 0 43 216 94 312 17 31 69 106 117 165 97 123 428 461 481 492 40 24 70 27
70 8z m2900 -91 c0 -16 -73 -84 -145 -135 -63 -45 -48 -18 43 77 66 68 102 89
102 58z m-3260 -32 c0 -27 -38 -81 -138 -199 -251 -293 -288 -362 -341 -625
-31 -154 -44 -169 -75 -80 -26 74 -27 230 -3 320 42 157 161 334 307 457 136
116 250 173 250 127z m-416 -201 c-76 -81 -150 -158 -165 -170 -37 -32 -53
-30 -44 5 16 64 94 168 178 234 34 27 137 77 160 78 5 0 -54 -66 -129 -147z
m1711 109 c-11 -9 -88 -74 -170 -143 -392 -330 -596 -611 -675 -929 -26 -104
-53 -153 -95 -176 -44 -23 -80 -12 -129 39 -95 99 -117 233 -59 358 35 77 124
217 153 244 24 22 31 16 54 -48 37 -98 90 -80 107 37 5 37 21 90 35 119 51
100 240 263 404 348 43 22 380 167 390 168 3 0 -4 -7 -15 -17z m-2378 -2 c40
0 38 -27 -11 -121 -71 -135 -89 -215 -89 -389 0 -153 7 -187 64 -317 12 -29
20 -56 16 -59 -33 -34 -214 237 -264 394 -24 76 -25 93 -21 220 7 200 34 252
145 272 26 5 68 7 92 4 24 -2 55 -4 68 -4z m508 -42 c-79 -90 -141 -234 -216
-498 -41 -147 -44 -143 -28 30 12 136 41 291 63 344 9 21 16 41 16 43 0 6 -37
-1 -62 -12 -31 -13 -20 17 28 78 25 31 52 57 60 57 18 0 18 -1 -2 -50 -9 -23
-14 -43 -11 -47 6 -5 120 59 162 91 40 31 36 15 -10 -36z m-305 22 c0 -11 -27
-73 -60 -138 -74 -144 -94 -218 -94 -342 0 -144 40 -267 133 -415 42 -66 94
-167 105 -202 12 -38 -19 -27 -57 20 -80 99 -207 335 -248 462 -18 56 -21 82
-16 144 12 157 103 388 179 457 44 39 58 43 58 14z m-596 -154 c-5 -61 -9
-154 -9 -206 1 -89 3 -99 37 -165 20 -38 109 -176 199 -305 213 -309 260 -380
253 -391 -14 -23 -57 -7 -106 39 -119 111 -363 414 -414 514 -38 75 -63 187
-70 316 -9 157 4 220 58 278 22 24 45 41 50 37 7 -4 8 -43 2 -117z m4459 -8
c-27 -49 -156 -130 -280 -178 -125 -48 -196 -87 -187 -102 9 -15 73 -3 220 42
71 21 130 37 132 36 6 -6 -147 -111 -213 -147 -95 -51 -196 -80 -488 -139
-137 -28 -303 -66 -370 -86 -133 -38 -247 -88 -247 -108 0 -25 38 -24 126 6
270 88 901 218 1130 232 l89 6 -75 -20 c-41 -11 -115 -36 -165 -55 -115 -44
-195 -65 -447 -119 -315 -68 -423 -103 -673 -223 -279 -133 -521 -239 -562
-248 -29 -6 -33 -4 -33 13 0 32 94 164 159 225 137 127 326 223 641 328 322
107 532 200 895 399 234 128 317 169 343 170 l24 0 -19 -32z m287 6 c0 -3 -32
-39 -71 -80 -72 -76 -83 -106 -42 -112 12 -2 35 9 56 27 35 32 57 39 57 20 0
-22 -103 -118 -158 -147 -92 -48 -222 -78 -245 -56 -21 21 82 156 181 237 73
60 172 117 203 117 10 0 19 -2 19 -6z m-4144 -149 c-3 -74 -13 -188 -21 -252
-8 -65 -15 -121 -15 -125 0 -5 -4 -8 -9 -8 -5 0 -17 23 -27 52 -13 42 -16 72
-11 157 10 157 48 311 78 311 9 0 10 -33 5 -135z m-1017 -86 c33 -75 29 -79
-62 -51 -90 27 -96 43 -32 79 58 33 70 30 94 -28z m-79 -106 c65 -18 168 -68
247 -120 158 -103 512 -528 571 -684 11 -30 20 -71 20 -91 0 -52 41 -121 134
-224 100 -111 130 -155 152 -222 42 -125 190 -283 394 -419 149 -99 279 -167
490 -254 89 -37 188 -84 219 -106 104 -71 182 -178 317 -432 83 -157 137 -236
246 -366 76 -90 79 -137 8 -143 -32 -3 -40 3 -85 53 -27 30 -94 133 -148 228
-120 209 -220 367 -294 466 -31 41 -62 82 -70 92 -7 11 -20 19 -28 19 -27 0
-5 -47 107 -230 79 -129 311 -532 349 -607 29 -57 27 -63 -17 -63 -31 0 -45 7
-78 43 -54 56 -115 145 -204 297 -179 306 -402 600 -455 600 -32 0 -8 -50 72
-147 144 -177 424 -653 448 -761 22 -103 -95 5 -374 343 -80 97 -262 287 -511
536 -390 389 -585 599 -755 809 -133 165 -177 236 -173 280 3 34 4 35 46 33
31 -1 42 2 42 13 0 18 -82 56 -230 108 -142 50 -346 152 -450 224 -185 130
-306 256 -372 389 -38 76 -40 84 -28 113 15 37 229 229 267 240 32 9 64 5 143
-17z m5180 -54 c-58 -147 -216 -286 -410 -362 -124 -48 -306 -71 -284 -36 4 6
81 47 173 91 183 87 261 133 261 153 0 22 64 76 168 142 53 34 100 62 104 62
4 1 -1 -22 -12 -50z m-6661 -246 c105 -39 189 -52 350 -54 83 0 151 -4 151 -7
0 -11 -158 -99 -226 -126 -157 -64 -330 -90 -547 -83 -228 7 -383 52 -494 143
-64 53 -57 68 50 108 101 38 170 82 253 159 l59 55 170 -85 c93 -47 199 -97
234 -110z m6221 66 c-33 -28 -92 -57 -348 -173 -267 -121 -315 -140 -310 -124
11 32 612 317 668 317 10 0 7 -6 -10 -20z m-3412 -47 c4 -26 -16 -65 -29 -57
-10 7 -12 68 -2 79 12 11 28 0 31 -22z m3752 -71 c0 -20 -108 -102 -179 -137
-162 -79 -418 -150 -631 -174 -82 -9 -290 -3 -290 9 0 11 236 93 310 107 52
10 108 13 185 8 165 -9 263 22 513 161 64 35 92 43 92 26z m-870 -5 c0 -5
-139 -109 -180 -133 -139 -84 -510 -170 -510 -119 0 19 152 92 320 154 123 45
191 65 320 91 25 5 46 9 48 10 1 1 2 -1 2 -3z m-2812 -86 c41 -61 15 -86 -32
-29 -26 31 -32 50 -19 63 11 11 27 1 51 -34z m3407 -201 c5 -5 -17 -9 -53 -9
-66 0 -76 5 -39 19 24 10 76 4 92 -10z m-2794 -20 c48 -11 95 -26 105 -33 17
-13 16 -15 -12 -29 -51 -26 -145 -40 -276 -41 -114 -1 -129 1 -155 20 -15 12
-29 31 -31 42 -5 30 33 37 114 22 35 -7 67 -10 70 -7 3 3 1 14 -5 25 -6 11 -7
23 -3 27 9 9 86 -1 193 -26z m-548 -81 c38 -41 73 -116 59 -130 -22 -22 -122
98 -122 147 0 25 30 17 63 -17z m2877 5 c-1 -14 -118 -93 -176 -119 -129 -57
-407 -98 -659 -97 -133 0 -304 19 -480 54 -55 10 -101 19 -102 19 -2 0 -3 4
-3 9 0 11 75 24 315 57 200 27 640 72 755 77 163 7 350 7 350 0z m-3232 -24
c3 -18 -38 -83 -53 -83 -19 0 -29 51 -17 79 10 21 18 26 39 23 16 -2 29 -10
31 -19z m3442 12 c0 -36 -267 -211 -322 -211 -62 0 63 119 197 188 57 30 125
42 125 23z m180 -30 c0 -17 -42 -61 -108 -112 -78 -61 -152 -130 -152 -141 0
-4 9 -8 20 -8 31 0 24 -26 -14 -55 -77 -59 -355 -88 -836 -87 -450 1 -699 27
-897 93 -35 11 -63 25 -63 30 0 10 18 8 195 -22 156 -25 420 -33 700 -20 396
19 595 46 732 101 72 29 227 115 263 146 27 23 133 84 147 84 7 0 13 -4 13 -9z
m-3407 -31 c40 -35 60 -76 55 -115 -2 -21 -11 -30 -38 -39 -36 -11 -45 -28
-64 -118 -8 -37 -39 -37 -114 1 -107 54 -272 183 -272 211 0 16 43 11 70 -7
14 -9 46 -36 72 -60 75 -68 135 -82 164 -38 14 21 14 33 4 94 -17 90 -12 101
44 101 36 0 52 -6 79 -30z m1294 -64 c293 -70 532 -105 868 -126 415 -27 415
-27 5 -29 -422 -1 -565 7 -718 40 -121 26 -376 110 -440 144 l-47 26 70 -5
c39 -2 157 -25 262 -50z m-617 -21 c283 -91 700 -268 700 -298 0 -47 -307 -45
-500 4 -182 46 -436 206 -457 288 -16 63 72 65 257 6z m405 -52 c132 -46 195
-73 195 -85 0 -14 -72 0 -145 27 -96 37 -192 82 -200 94 -9 15 22 8 150 -36z
m-737 -85 c-8 -24 -72 -52 -103 -44 -21 5 -25 10 -16 19 28 29 126 49 119 25z
m145 -59 c23 -12 102 -64 176 -116 217 -154 266 -173 441 -172 124 0 223 17
274 47 46 27 50 27 36 1 -16 -28 2 -70 46 -109 58 -50 50 -53 -128 -47 -186 6
-293 25 -483 88 -297 99 -503 244 -445 314 17 20 33 19 83 -6z m-717 -14 c29
-29 24 -45 -15 -45 -35 0 -55 22 -46 50 9 27 31 25 61 -5z m621 -126 c67 -46
225 -180 220 -186 -17 -17 -297 179 -297 208 0 18 32 9 77 -22z m1204 21 c92
-18 350 -38 689 -55 495 -25 489 -31 -25 -27 -584 3 -756 17 -772 59 -12 31
23 39 108 23z m-1557 -51 c19 -9 33 -31 52 -83 15 -39 56 -135 91 -213 65
-146 70 -163 53 -163 -28 0 -261 216 -326 304 -68 90 -59 127 34 152 60 16 66
16 96 3z m210 -66 c44 -61 60 -116 54 -193 -7 -99 -17 -95 -68 27 -76 181 -68
278 14 166z m848 21 c49 -8 98 -19 110 -23 51 -20 -15 -24 -131 -8 -115 15
-171 31 -171 50 0 10 50 5 192 -19z m1073 -79 c121 -8 227 -15 235 -15 13 0
13 -1 0 -10 -8 -5 -100 -10 -205 -10 -104 0 -271 -5 -370 -11 -99 -6 -193 -10
-208 -10 -33 2 -77 22 -96 45 -11 13 -10 17 10 26 29 12 317 5 634 -15z
m-1663 -156 c44 -64 86 -164 95 -224 7 -55 -5 -135 -20 -135 -30 0 -126 183
-146 277 -14 65 -1 148 22 141 7 -3 29 -29 49 -59z m1600 35 c21 -4 35 -10 32
-15 -6 -11 -134 -12 -161 -2 -40 15 59 28 129 17z m-1200 -64 c85 -32 85 -45
2 -36 -76 8 -294 53 -303 63 -3 3 50 3 119 0 94 -4 139 -10 182 -27z m1106
-16 c13 -4 22 -13 20 -22 -4 -21 -91 -48 -200 -62 -102 -13 -548 -22 -548 -12
0 9 268 70 380 87 89 14 309 19 348 9z m-880 -150 c175 -42 260 -55 397 -61
164 -7 233 1 281 34 45 30 109 44 102 22 -9 -26 -69 -58 -146 -76 -58 -13
-119 -17 -247 -17 -230 0 -349 21 -477 86 -96 47 -71 51 90 12z m-289 -172
c126 -71 211 -100 211 -73 0 4 -24 31 -54 60 -30 28 -49 51 -41 51 8 0 67 -20
132 -44 124 -46 203 -70 267 -81 98 -17 -75 -57 -244 -56 -173 0 -294 29 -356
83 -28 25 -34 37 -34 69 0 52 11 51 119 -9z m680 -18 c17 -4 31 -10 31 -15 0
-12 -137 -12 -145 0 -9 16 62 25 114 15z m-255 -198 c44 -18 95 -81 173 -213
82 -139 203 -377 203 -399 0 -33 -40 17 -182 231 -78 116 -165 240 -195 278
-134 167 -64 11 159 -350 96 -156 198 -351 198 -377 0 -31 -21 -15 -85 67
-162 204 -465 684 -465 737 0 34 133 52 194 26z"/>
<path d="M4592 8099 c-110 -87 -272 -289 -338 -419 -73 -147 -93 -296 -58
-439 29 -119 34 -109 59 114 36 320 71 402 257 601 103 109 141 159 136 175
-2 6 -27 -8 -56 -32z"/>
<path d="M2390 7209 c0 -114 39 -213 118 -301 37 -41 62 -49 62 -20 0 9 -23
55 -50 102 -47 80 -110 223 -110 252 0 7 -5 20 -10 28 -7 10 -10 -8 -10 -61z"/>
<path d="M4440 6502 c0 -14 88 -55 178 -82 118 -36 108 -6 -17 52 -67 31 -161
49 -161 30z"/>
<path d="M8612 7628 c-47 -23 -79 -62 -88 -107 -10 -47 20 -123 96 -251 97
-162 133 -272 134 -410 1 -118 -7 -146 -66 -229 -40 -57 -47 -81 -24 -81 74 0
166 230 152 378 -9 90 -58 227 -133 374 -78 151 -86 194 -52 259 48 90 46 100
-19 67z"/>
<path d="M10866 6758 c-27 -38 -16 -142 12 -124 6 3 18 26 27 51 28 73 -1 127
-39 73z"/>
<path d="M10753 6492 c-167 -149 -315 -316 -380 -428 -54 -92 -89 -185 -174
-459 -39 -126 -72 -231 -73 -232 -1 -1 -92 -10 -202 -19 -250 -20 -497 -15
-674 16 -144 24 -223 24 -228 -1 -8 -41 117 -54 663 -69 413 -12 499 -19 524
-44 13 -14 16 -42 16 -179 0 -166 5 -197 30 -177 24 20 35 107 35 270 0 155 1
160 23 172 17 10 131 13 492 15 295 2 492 6 530 14 114 21 237 96 285 174 12
19 32 76 46 127 24 92 72 202 114 266 35 51 5 38 -59 -25 -59 -60 -77 -97
-125 -265 -28 -98 -131 -187 -261 -229 -29 -9 -181 -14 -540 -19 -275 -4 -510
-10 -523 -15 -13 -4 -28 -19 -33 -32 -5 -14 -14 -21 -20 -17 -16 9 -5 81 36
238 85 330 199 595 292 677 44 38 71 35 102 -14 27 -41 41 -35 41 16 0 52 31
137 66 180 55 69 87 117 81 123 -3 3 -40 -26 -84 -64z"/>
<path d="M12046 5580 c-42 -11 -176 -78 -176 -89 0 -4 51 6 113 21 151 38 255
41 322 8 27 -13 68 -43 91 -65 61 -61 69 -105 69 -365 0 -184 -3 -222 -18
-262 -41 -105 -211 -201 -314 -178 -46 11 -80 36 -118 88 -16 22 -33 41 -36
41 -4 1 -1 -24 7 -55 7 -30 10 -72 7 -92 -18 -114 -121 -219 -258 -262 -61
-19 -65 -30 -9 -30 60 0 143 40 259 124 44 32 150 92 235 133 85 42 172 89
192 105 85 66 113 197 106 492 -4 169 -6 185 -30 237 -28 61 -74 100 -158 134
-53 21 -223 30 -284 15z"/>
<path d="M12276 5379 c-52 -41 -78 -134 -96 -348 -5 -63 -8 -117 -6 -119 2 -2
9 23 16 55 18 94 81 324 102 372 24 57 20 68 -16 40z"/>
<path d="M11395 5024 c-94 -136 -349 -314 -455 -317 -20 -1 -75 15 -126 36
-88 36 -154 47 -154 27 0 -5 39 -28 87 -51 114 -53 154 -86 212 -173 79 -117
104 -123 76 -17 -24 93 -8 118 153 237 128 95 226 184 248 226 15 29 19 88 6
88 -5 0 -26 -25 -47 -56z"/>
<path d="M8531 4998 c-1 -9 4 -39 10 -67 13 -63 2 -85 -48 -101 -81 -25 -96
-34 -109 -66 -15 -35 -17 -141 -5 -184 7 -21 10 -16 20 34 15 67 44 140 60
150 26 17 208 38 562 66 291 23 477 44 561 65 63 16 138 50 138 64 0 11 -68 4
-142 -15 -76 -19 -193 -40 -308 -55 -132 -18 -563 -18 -612 -1 -35 13 -72 47
-110 102 -13 19 -17 21 -17 8z"/>
<path d="M4110 3828 c1 -58 87 -167 196 -249 28 -21 138 -84 245 -140 174 -91
246 -133 481 -278 37 -22 73 -41 79 -41 53 0 -260 214 -521 355 -221 120 -329
201 -410 308 -53 71 -70 81 -70 45z"/>
<path d="M8340 8452 c-23 -8 -23 -9 -5 -14 63 -20 182 -32 603 -63 395 -29
372 -28 372 -15 0 18 -48 41 -108 50 -190 31 -803 60 -862 42z"/>
<path d="M8482 8368 c-20 -20 -15 -48 9 -48 26 0 81 38 74 51 -9 13 -69 11
-83 -3z"/>
</g>
</svg>
